# xmcd CD database file
#
# Track frame offsets:
#	150
#	13822
#	29272
#	45640
#	60935
#	75817
#	93562
#	107932
#	120042
#	137590
#
# Disc length: 2033 seconds
#
# Revision: 2
# Processed by: cddbd v1.5.2PL0 Copyright (c) Steve Scherf et al.
# Submitted via: CDex 1.70beta2
#
DISCID=6c07ef0a
DTITLE=Conlee,John [CDN-cty-78) - Greatest Hits
DYEAR=1978
DGENRE=Country
TTITLE0=Lifetime Guarantee
TTITLE1=Years After You
TTITLE2=In My Eyes
TTITLE3=As Long As I'm Rockin' With You
TTITLE4=I'm Only In It For The Love
TTITLE5=The Old School
TTITLE6=Way Back
TTITLE7=Before My Time
TTITLE8=Working Man
TTITLE9=Blue Highway
EXTD=YEAR: 1978
EXTT0=
EXTT1=
EXTT2=
EXTT3=
EXTT4=
EXTT5=
EXTT6=
EXTT7=
EXTT8=
EXTT9=
PLAYORDER=
